<mxfile host="app.diagrams.net" modified="2020-09-04T07:27:04.600Z" agent="5.0 (Windows NT 10.0; Win64; x64) AppleWebKit/537.36 (KHTML, like Gecko) Chrome/85.0.4183.83 Safari/537.36" etag="3vmcTdzFuKGvHjce7NPh" version="13.6.6" type="github">
  <diagram id="NbuawldfrQbSGaSKGCiL" name="Page-1">
    <mxGraphModel dx="1019" dy="555" grid="1" gridSize="10" guides="1" tooltips="1" connect="1" arrows="1" fold="1" page="1" pageScale="1" pageWidth="827" pageHeight="1169" math="0" shadow="0">
      <root>
        <mxCell id="0" />
        <mxCell id="1" parent="0" />
        <mxCell id="7b5YYgsL7cHkZp3JZ1fE-1" value="" style="endArrow=none;html=1;entryX=0.5;entryY=1;entryDx=0;entryDy=0;rounded=0;" edge="1" parent="1" target="7b5YYgsL7cHkZp3JZ1fE-2">
          <mxGeometry width="50" height="50" relative="1" as="geometry">
            <mxPoint x="130" y="117" as="sourcePoint" />
            <mxPoint x="360" y="117" as="targetPoint" />
            <Array as="points">
              <mxPoint x="375" y="117" />
            </Array>
          </mxGeometry>
        </mxCell>
        <mxCell id="7b5YYgsL7cHkZp3JZ1fE-2" value="PROXMOX-01" style="rounded=0;whiteSpace=wrap;html=1;strokeColor=#6666FF;" vertex="1" parent="1">
          <mxGeometry x="325" y="27" width="100" height="67" as="geometry" />
        </mxCell>
        <mxCell id="7b5YYgsL7cHkZp3JZ1fE-3" value="" style="endArrow=none;html=1;strokeColor=#FF0000;" edge="1" parent="1">
          <mxGeometry width="50" height="50" relative="1" as="geometry">
            <mxPoint x="370" y="200" as="sourcePoint" />
            <mxPoint x="370" y="120" as="targetPoint" />
          </mxGeometry>
        </mxCell>
        <mxCell id="7b5YYgsL7cHkZp3JZ1fE-4" value="" style="endArrow=none;html=1;strokeColor=#FF3333;" edge="1" parent="1">
          <mxGeometry width="50" height="50" relative="1" as="geometry">
            <mxPoint x="370" y="200" as="sourcePoint" />
            <mxPoint x="520" y="200" as="targetPoint" />
          </mxGeometry>
        </mxCell>
        <mxCell id="7b5YYgsL7cHkZp3JZ1fE-5" value="" style="endArrow=none;html=1;" edge="1" parent="1">
          <mxGeometry width="50" height="50" relative="1" as="geometry">
            <mxPoint x="570" y="45" as="sourcePoint" />
            <mxPoint x="677" y="45" as="targetPoint" />
          </mxGeometry>
        </mxCell>
        <mxCell id="7b5YYgsL7cHkZp3JZ1fE-7" value="" style="endArrow=none;html=1;strokeColor=#FF3333;" edge="1" parent="1">
          <mxGeometry width="50" height="50" relative="1" as="geometry">
            <mxPoint x="348" y="237" as="sourcePoint" />
            <mxPoint x="348" y="120" as="targetPoint" />
          </mxGeometry>
        </mxCell>
        <mxCell id="7b5YYgsL7cHkZp3JZ1fE-8" value="" style="endArrow=none;html=1;strokeColor=#FF0000;" edge="1" parent="1">
          <mxGeometry width="50" height="50" relative="1" as="geometry">
            <mxPoint x="350" y="238" as="sourcePoint" />
            <mxPoint x="520" y="238" as="targetPoint" />
          </mxGeometry>
        </mxCell>
        <mxCell id="7b5YYgsL7cHkZp3JZ1fE-11" value="" style="endArrow=none;html=1;exitX=0.5;exitY=1;exitDx=0;exitDy=0;exitPerimeter=0;rounded=0;entryX=0.5;entryY=1;entryDx=0;entryDy=0;" edge="1" parent="1" target="7b5YYgsL7cHkZp3JZ1fE-12">
          <mxGeometry width="50" height="50" relative="1" as="geometry">
            <mxPoint x="105" y="150" as="sourcePoint" />
            <mxPoint x="322" y="420" as="targetPoint" />
            <Array as="points">
              <mxPoint x="105" y="420" />
              <mxPoint x="371" y="420" />
            </Array>
          </mxGeometry>
        </mxCell>
        <mxCell id="7b5YYgsL7cHkZp3JZ1fE-12" value="PROXMOX-02" style="rounded=0;whiteSpace=wrap;html=1;strokeColor=#0000FF;" vertex="1" parent="1">
          <mxGeometry x="322" y="316" width="98" height="67" as="geometry" />
        </mxCell>
        <mxCell id="7b5YYgsL7cHkZp3JZ1fE-13" value="" style="endArrow=none;html=1;strokeColor=#FF0000;exitX=0.089;exitY=0.956;exitDx=0;exitDy=0;exitPerimeter=0;rounded=0;" edge="1" parent="1" source="7b5YYgsL7cHkZp3JZ1fE-35">
          <mxGeometry width="50" height="50" relative="1" as="geometry">
            <mxPoint x="360" y="480" as="sourcePoint" />
            <mxPoint x="360" y="420" as="targetPoint" />
            <Array as="points">
              <mxPoint x="360" y="483" />
            </Array>
          </mxGeometry>
        </mxCell>
        <mxCell id="7b5YYgsL7cHkZp3JZ1fE-16" value="" style="endArrow=none;html=1;exitX=1;exitY=0.75;exitDx=0;exitDy=0;" edge="1" parent="1">
          <mxGeometry width="50" height="50" relative="1" as="geometry">
            <mxPoint x="420" y="349" as="sourcePoint" />
            <mxPoint x="530" y="349" as="targetPoint" />
          </mxGeometry>
        </mxCell>
        <mxCell id="7b5YYgsL7cHkZp3JZ1fE-17" value="" style="endArrow=none;html=1;strokeColor=#FF0000;" edge="1" parent="1">
          <mxGeometry width="50" height="50" relative="1" as="geometry">
            <mxPoint x="345" y="513" as="sourcePoint" />
            <mxPoint x="345" y="420" as="targetPoint" />
          </mxGeometry>
        </mxCell>
        <mxCell id="7b5YYgsL7cHkZp3JZ1fE-18" value="" style="endArrow=none;html=1;strokeColor=#FF0000;" edge="1" parent="1">
          <mxGeometry width="50" height="50" relative="1" as="geometry">
            <mxPoint x="345" y="513" as="sourcePoint" />
            <mxPoint x="520" y="513" as="targetPoint" />
          </mxGeometry>
        </mxCell>
        <mxCell id="7b5YYgsL7cHkZp3JZ1fE-19" value="" style="endArrow=none;html=1;strokeColor=#FF0000;" edge="1" parent="1">
          <mxGeometry width="50" height="50" relative="1" as="geometry">
            <mxPoint x="330" y="278" as="sourcePoint" />
            <mxPoint x="330" y="120" as="targetPoint" />
          </mxGeometry>
        </mxCell>
        <mxCell id="7b5YYgsL7cHkZp3JZ1fE-20" value="" style="endArrow=none;html=1;strokeColor=#FF0000;" edge="1" parent="1">
          <mxGeometry width="50" height="50" relative="1" as="geometry">
            <mxPoint x="330" y="279" as="sourcePoint" />
            <mxPoint x="520" y="279" as="targetPoint" />
          </mxGeometry>
        </mxCell>
        <mxCell id="7b5YYgsL7cHkZp3JZ1fE-25" value="" style="endArrow=none;html=1;strokeColor=#FF3333;" edge="1" parent="1">
          <mxGeometry width="50" height="50" relative="1" as="geometry">
            <mxPoint x="160" y="240" as="sourcePoint" />
            <mxPoint x="330" y="240" as="targetPoint" />
          </mxGeometry>
        </mxCell>
        <mxCell id="7b5YYgsL7cHkZp3JZ1fE-26" value="10.41.4.201" style="text;html=1;align=center;verticalAlign=middle;resizable=0;points=[];autosize=1;" vertex="1" parent="1">
          <mxGeometry x="150" y="98" width="80" height="20" as="geometry" />
        </mxCell>
        <mxCell id="7b5YYgsL7cHkZp3JZ1fE-27" value="10.41.4.202" style="text;html=1;align=center;verticalAlign=middle;resizable=0;points=[];autosize=1;" vertex="1" parent="1">
          <mxGeometry x="110" y="370" width="80" height="20" as="geometry" />
        </mxCell>
        <mxCell id="7b5YYgsL7cHkZp3JZ1fE-28" value="10.41.4.20" style="text;html=1;align=center;verticalAlign=middle;resizable=0;points=[];autosize=1;" vertex="1" parent="1">
          <mxGeometry x="180" y="217" width="70" height="20" as="geometry" />
        </mxCell>
        <mxCell id="7b5YYgsL7cHkZp3JZ1fE-29" value="10.20.0.0/24" style="text;html=1;align=center;verticalAlign=middle;resizable=0;points=[];autosize=1;" vertex="1" parent="1">
          <mxGeometry x="670" y="53.5" width="80" height="20" as="geometry" />
        </mxCell>
        <mxCell id="7b5YYgsL7cHkZp3JZ1fE-30" value="10.20.1.0/28" style="text;html=1;align=center;verticalAlign=middle;resizable=0;points=[];autosize=1;" vertex="1" parent="1">
          <mxGeometry x="670" y="30" width="80" height="20" as="geometry" />
        </mxCell>
        <mxCell id="7b5YYgsL7cHkZp3JZ1fE-31" value="10.22.0.1/28" style="text;html=1;align=center;verticalAlign=middle;resizable=0;points=[];autosize=1;" vertex="1" parent="1">
          <mxGeometry x="512" y="186" width="80" height="20" as="geometry" />
        </mxCell>
        <mxCell id="7b5YYgsL7cHkZp3JZ1fE-32" value="10.22.0.3/28" style="text;html=1;align=center;verticalAlign=middle;resizable=0;points=[];autosize=1;" vertex="1" parent="1">
          <mxGeometry x="511" y="222" width="80" height="20" as="geometry" />
        </mxCell>
        <mxCell id="7b5YYgsL7cHkZp3JZ1fE-33" value="10.22.0.11/28" style="text;html=1;align=center;verticalAlign=middle;resizable=0;points=[];autosize=1;" vertex="1" parent="1">
          <mxGeometry x="508" y="264" width="90" height="20" as="geometry" />
        </mxCell>
        <mxCell id="7b5YYgsL7cHkZp3JZ1fE-34" value="10.200.0.0/24" style="text;html=1;align=center;verticalAlign=middle;resizable=0;points=[];autosize=1;" vertex="1" parent="1">
          <mxGeometry x="525" y="339.5" width="90" height="20" as="geometry" />
        </mxCell>
        <mxCell id="7b5YYgsL7cHkZp3JZ1fE-35" value="10.22.0.2/28" style="text;html=1;align=center;verticalAlign=middle;resizable=0;points=[];autosize=1;" vertex="1" parent="1">
          <mxGeometry x="511" y="465" width="80" height="20" as="geometry" />
        </mxCell>
        <mxCell id="7b5YYgsL7cHkZp3JZ1fE-36" value="10.22.0.12/28" style="text;html=1;align=center;verticalAlign=middle;resizable=0;points=[];autosize=1;" vertex="1" parent="1">
          <mxGeometry x="507" y="500" width="90" height="20" as="geometry" />
        </mxCell>
        <mxCell id="7b5YYgsL7cHkZp3JZ1fE-38" value="vmbr0" style="text;html=1;align=center;verticalAlign=middle;resizable=0;points=[];autosize=1;" vertex="1" parent="1">
          <mxGeometry x="372" y="102" width="50" height="20" as="geometry" />
        </mxCell>
        <mxCell id="7b5YYgsL7cHkZp3JZ1fE-39" value="vmbr0" style="text;html=1;align=center;verticalAlign=middle;resizable=0;points=[];autosize=1;" vertex="1" parent="1">
          <mxGeometry x="370" y="382" width="50" height="20" as="geometry" />
        </mxCell>
        <mxCell id="7b5YYgsL7cHkZp3JZ1fE-40" value="VIP" style="text;html=1;align=center;verticalAlign=middle;resizable=0;points=[];autosize=1;" vertex="1" parent="1">
          <mxGeometry x="292" y="217" width="30" height="20" as="geometry" />
        </mxCell>
        <mxCell id="7b5YYgsL7cHkZp3JZ1fE-42" value="" style="points=[[0.015,0.015,0],[0.985,0.015,0],[0.985,0.985,0],[0.015,0.985,0],[0.25,0,0],[0.5,0,0],[0.75,0,0],[1,0.25,0],[1,0.5,0],[1,0.75,0],[0.75,1,0],[0.5,1,0],[0.25,1,0],[0,0.75,0],[0,0.5,0],[0,0.25,0]];verticalLabelPosition=bottom;html=1;verticalAlign=top;aspect=fixed;align=center;pointerEvents=1;shape=mxgraph.cisco19.rect;prIcon=l2_switch;fillColor=#FAFAFA;strokeColor=#005073;" vertex="1" parent="1">
          <mxGeometry x="80" y="99" width="50" height="50" as="geometry" />
        </mxCell>
        <mxCell id="7b5YYgsL7cHkZp3JZ1fE-44" value="" style="endArrow=none;html=1;entryX=1;entryY=0.75;entryDx=0;entryDy=0;entryPerimeter=0;rounded=0;strokeColor=#FF3333;" edge="1" parent="1" target="7b5YYgsL7cHkZp3JZ1fE-42">
          <mxGeometry width="50" height="50" relative="1" as="geometry">
            <mxPoint x="160" y="240" as="sourcePoint" />
            <mxPoint x="160" y="130" as="targetPoint" />
            <Array as="points">
              <mxPoint x="160" y="137" />
            </Array>
          </mxGeometry>
        </mxCell>
        <mxCell id="7b5YYgsL7cHkZp3JZ1fE-45" value="" style="endArrow=none;dashed=1;html=1;dashPattern=1 3;strokeWidth=2;entryX=0.306;entryY=1.14;entryDx=0;entryDy=0;entryPerimeter=0;rounded=0;strokeColor=#FF3333;" edge="1" parent="1" target="7b5YYgsL7cHkZp3JZ1fE-28">
          <mxGeometry width="50" height="50" relative="1" as="geometry">
            <mxPoint x="340" y="480" as="sourcePoint" />
            <mxPoint x="440" y="260" as="targetPoint" />
            <Array as="points">
              <mxPoint x="201" y="480" />
            </Array>
          </mxGeometry>
        </mxCell>
        <mxCell id="7b5YYgsL7cHkZp3JZ1fE-46" value="" style="endArrow=none;html=1;strokeColor=#333333;" edge="1" parent="1">
          <mxGeometry width="50" height="50" relative="1" as="geometry">
            <mxPoint x="425" y="60.5" as="sourcePoint" />
            <mxPoint x="475" y="60.5" as="targetPoint" />
          </mxGeometry>
        </mxCell>
        <mxCell id="7b5YYgsL7cHkZp3JZ1fE-47" value="FIREWALL&lt;br&gt;PFSENSE" style="rounded=0;whiteSpace=wrap;html=1;" vertex="1" parent="1">
          <mxGeometry x="479" y="40.5" width="90" height="33" as="geometry" />
        </mxCell>
        <mxCell id="7b5YYgsL7cHkZp3JZ1fE-48" value="" style="endArrow=none;html=1;" edge="1" parent="1">
          <mxGeometry width="50" height="50" relative="1" as="geometry">
            <mxPoint x="570" y="66" as="sourcePoint" />
            <mxPoint x="677" y="66" as="targetPoint" />
          </mxGeometry>
        </mxCell>
        <mxCell id="7b5YYgsL7cHkZp3JZ1fE-54" value="IQBIOGR1001" style="text;html=1;align=center;verticalAlign=middle;resizable=0;points=[];autosize=1;" vertex="1" parent="1">
          <mxGeometry x="596" y="186" width="90" height="20" as="geometry" />
        </mxCell>
        <mxCell id="7b5YYgsL7cHkZp3JZ1fE-55" value="IQBIOGR1002" style="text;html=1;align=center;verticalAlign=middle;resizable=0;points=[];autosize=1;" vertex="1" parent="1">
          <mxGeometry x="592" y="223" width="90" height="20" as="geometry" />
        </mxCell>
        <mxCell id="7b5YYgsL7cHkZp3JZ1fE-56" value="IQBIOHA1001" style="text;html=1;align=center;verticalAlign=middle;resizable=0;points=[];autosize=1;" vertex="1" parent="1">
          <mxGeometry x="591" y="264" width="90" height="20" as="geometry" />
        </mxCell>
        <mxCell id="7b5YYgsL7cHkZp3JZ1fE-57" value="&lt;span style=&quot;color: rgba(0 , 0 , 0 , 0) ; font-family: monospace ; font-size: 0px&quot;&gt;%3CmxGraphModel%3E%3Croot%3E%3CmxCell%20id%3D%220%22%2F%3E%3CmxCell%20id%3D%221%22%20parent%3D%220%22%2F%3E%3CmxCell%20id%3D%222%22%20value%3D%22IQBIOHA1001%22%20style%3D%22text%3Bhtml%3D1%3Balign%3Dcenter%3BverticalAlign%3Dmiddle%3Bresizable%3D0%3Bpoints%3D%5B%5D%3Bautosize%3D1%3B%22%20vertex%3D%221%22%20parent%3D%221%22%3E%3CmxGeometry%20x%3D%22591%22%20y%3D%22264%22%20width%3D%2290%22%20height%3D%2220%22%20as%3D%22geometry%22%2F%3E%3C%2FmxCell%3E%3C%2Froot%3E%3C%2FmxGraphModel%3E&lt;/span&gt;" style="text;html=1;align=center;verticalAlign=middle;resizable=0;points=[];autosize=1;" vertex="1" parent="1">
          <mxGeometry x="600" y="460" width="20" height="20" as="geometry" />
        </mxCell>
        <mxCell id="7b5YYgsL7cHkZp3JZ1fE-58" value="IQBIOHA1002" style="text;html=1;align=center;verticalAlign=middle;resizable=0;points=[];autosize=1;" vertex="1" parent="1">
          <mxGeometry x="597" y="499" width="90" height="20" as="geometry" />
        </mxCell>
        <mxCell id="7b5YYgsL7cHkZp3JZ1fE-59" value="IQBIOGR1001" style="text;html=1;align=center;verticalAlign=middle;resizable=0;points=[];autosize=1;" vertex="1" parent="1">
          <mxGeometry x="598" y="465" width="90" height="20" as="geometry" />
        </mxCell>
        <mxCell id="7b5YYgsL7cHkZp3JZ1fE-61" value="LAN APP" style="text;html=1;align=center;verticalAlign=middle;resizable=0;points=[];autosize=1;" vertex="1" parent="1">
          <mxGeometry x="743" y="28.5" width="70" height="20" as="geometry" />
        </mxCell>
        <mxCell id="7b5YYgsL7cHkZp3JZ1fE-63" value="LAN WEB" style="text;html=1;align=center;verticalAlign=middle;resizable=0;points=[];autosize=1;" vertex="1" parent="1">
          <mxGeometry x="745" y="53.5" width="70" height="20" as="geometry" />
        </mxCell>
        <mxCell id="7b5YYgsL7cHkZp3JZ1fE-64" value="LAN PREPROD" style="text;html=1;align=center;verticalAlign=middle;resizable=0;points=[];autosize=1;" vertex="1" parent="1">
          <mxGeometry x="615" y="339.5" width="100" height="20" as="geometry" />
        </mxCell>
        <mxCell id="7b5YYgsL7cHkZp3JZ1fE-65" value="LIAISON PASSIF" style="text;html=1;align=center;verticalAlign=middle;resizable=0;points=[];autosize=1;" vertex="1" parent="1">
          <mxGeometry x="200" y="450" width="110" height="20" as="geometry" />
        </mxCell>
      </root>
    </mxGraphModel>
  </diagram>
</mxfile>
